<svg xmlns="http://www.w3.org/2000/svg" xmlns:xlink="http://www.w3.org/1999/xlink" width="500" zoomAndPan="magnify" viewBox="0 0 375 374.999991" height="500" preserveAspectRatio="xMidYMid meet" version="1.0"><defs><clipPath id="53b58daf22"><path d="M 0 0.140625 L 375 0.140625 L 375 374.390625 L 0 374.390625 Z M 0 0.140625 " clip-rule="nonzero"/></clipPath></defs><g clip-path="url(#53b58daf22)"><path fill="#232323" d="M 187.5 197.695312 C 181.734375 197.695312 177.0625 193.027344 177.0625 187.265625 C 177.0625 181.503906 181.734375 176.835938 187.5 176.835938 C 193.265625 176.835938 197.9375 181.503906 197.9375 187.265625 C 197.9375 193.027344 193.265625 197.695312 187.5 197.695312 Z M 187.5 0.140625 C 84.078125 0.140625 0.234375 83.921875 0.234375 187.265625 C 0.234375 290.609375 84.078125 374.390625 187.5 374.390625 C 290.921875 374.390625 374.765625 290.609375 374.765625 187.265625 C 374.765625 83.921875 290.921875 0.140625 187.5 0.140625 " fill-opacity="1" fill-rule="nonzero"/></g><path fill="#ffbc50" d="M 187.5 197.695312 C 181.734375 197.695312 177.0625 193.027344 177.0625 187.265625 C 177.0625 181.503906 181.734375 176.835938 187.5 176.835938 C 193.265625 176.835938 197.9375 181.503906 197.9375 187.265625 C 197.9375 193.027344 193.265625 197.695312 187.5 197.695312 Z M 187.5 120.699219 C 150.707031 120.699219 120.882812 150.503906 120.882812 187.265625 C 120.882812 224.027344 150.707031 253.832031 187.5 253.832031 C 224.292969 253.832031 254.117188 224.027344 254.117188 187.265625 C 254.117188 150.503906 224.292969 120.699219 187.5 120.699219 " fill-opacity="1" fill-rule="nonzero"/><path fill="#020202" d="M 187.5 176.835938 C 181.734375 176.835938 177.0625 181.507812 177.0625 187.265625 C 177.0625 193.027344 181.734375 197.695312 187.5 197.695312 C 193.265625 197.695312 197.9375 193.027344 197.9375 187.265625 C 197.9375 181.507812 193.265625 176.835938 187.5 176.835938 Z M 187.5 179.289062 C 191.902344 179.289062 195.480469 182.867188 195.480469 187.265625 C 195.480469 191.664062 191.902344 195.242188 187.5 195.242188 C 183.097656 195.242188 179.519531 191.664062 179.519531 187.265625 C 179.519531 182.867188 183.097656 179.289062 187.5 179.289062 " fill-opacity="1" fill-rule="nonzero"/><path fill="#636363" d="M 194.039062 365.890625 C 92.421875 365.890625 10.046875 285.921875 10.046875 187.269531 C 10.046875 88.613281 92.421875 8.640625 194.039062 8.640625 C 206.410156 8.640625 218.492188 9.832031 230.175781 12.09375 C 216.492188 8.777344 202.203125 7.003906 187.5 7.003906 C 87.867188 7.003906 7.101562 87.710938 7.101562 187.265625 C 7.101562 286.820312 87.867188 367.527344 187.5 367.527344 C 202.195312 367.527344 216.472656 365.757812 230.144531 362.445312 C 218.46875 364.703125 206.398438 365.890625 194.039062 365.890625 " fill-opacity="1" fill-rule="nonzero"/><path fill="#636363" d="M 188.484375 265.804688 C 144.464844 265.804688 108.78125 230.902344 108.78125 187.851562 C 108.78125 144.796875 144.464844 109.898438 188.484375 109.898438 C 197.109375 109.898438 205.410156 111.242188 213.191406 113.722656 C 204.5 110.417969 195.074219 108.605469 185.222656 108.605469 C 141.746094 108.605469 106.5 143.824219 106.5 187.265625 C 106.5 230.707031 141.746094 265.925781 185.222656 265.925781 C 186.777344 265.925781 188.324219 265.875 189.855469 265.789062 C 189.398438 265.792969 188.945312 265.804688 188.484375 265.804688 " fill-opacity="1" fill-rule="nonzero"/><path fill="#e09f41" d="M 195.5625 195.324219 C 191.484375 199.394531 184.875 199.394531 180.800781 195.324219 L 141.078125 235.015625 C 167.09375 261.011719 209.273438 261.011719 235.289062 235.015625 C 261.304688 209.023438 261.304688 166.875 235.289062 140.878906 L 195.5625 180.570312 C 199.636719 184.644531 199.636719 191.25 195.5625 195.324219 " fill-opacity="1" fill-rule="nonzero"/><path fill="#a3a3a3" d="M 253.207031 117.804688 C 250.167969 113.664062 245.234375 112.199219 240.953125 109.433594 C 236.703125 106.691406 233.078125 104.226562 228.667969 101.863281 C 219.671875 97.136719 211.101562 93.15625 200.5 92.316406 C 198.636719 91.988281 177.632812 88.539062 158.1875 95.453125 C 138.542969 101.519531 124.097656 116.507812 125.972656 118.308594 C 126.59375 118.992188 135.753906 111.367188 136.476562 111.367188 C 142.003906 108.972656 155.210938 102.554688 168.894531 100.339844 C 182.546875 97.769531 195.796875 99.269531 199.6875 99.386719 C 214.21875 99.605469 226.957031 103.304688 240.222656 110.59375 C 244.515625 113.066406 249.621094 114.230469 252.703125 118.28125 C 252.769531 118.371094 252.945312 118.320312 253.089844 118.191406 C 253.230469 118.066406 253.308594 117.878906 253.207031 117.804688 " fill-opacity="1" fill-rule="nonzero"/><path fill="#a3a3a3" d="M 264.875 106.101562 C 261.203125 101.328125 255.621094 99.3125 250.554688 95.988281 C 245.535156 92.695312 241.199219 89.808594 235.945312 87.03125 C 225.222656 81.46875 215.015625 77.003906 202.507812 75.921875 C 200.289062 75.511719 175.488281 71.660156 152.570312 79.914062 C 129.386719 87.1875 112.390625 104.824219 114.28125 106.628906 C 114.863281 107.296875 125.667969 98.21875 126.515625 98.183594 C 132.882812 95.109375 148.523438 87.148438 164.867188 84.316406 C 181.15625 81.046875 197.058594 82.757812 201.703125 82.988281 C 219.054688 83.574219 234.222656 88.210938 249.839844 97.15625 C 254.898438 100.179688 260.648438 101.890625 264.367188 106.574219 C 264.445312 106.679688 264.632812 106.636719 264.777344 106.511719 C 264.921875 106.386719 264.992188 106.1875 264.875 106.101562 " fill-opacity="1" fill-rule="nonzero"/><path fill="#a3a3a3" d="M 276.539062 94.394531 C 272.230469 88.992188 266.007812 86.425781 260.160156 82.539062 C 254.367188 78.703125 249.316406 75.390625 243.222656 72.199219 C 230.773438 65.800781 218.929688 60.851562 204.515625 59.527344 C 201.941406 59.035156 173.34375 54.78125 146.957031 64.378906 C 120.226562 72.855469 100.683594 93.140625 102.589844 94.945312 C 103.128906 95.601562 115.585938 85.074219 116.554688 84.996094 C 123.761719 81.246094 141.835938 71.746094 160.84375 68.292969 C 179.769531 64.324219 198.316406 66.246094 203.71875 66.59375 C 223.886719 67.546875 241.488281 73.121094 259.457031 83.71875 C 265.285156 87.292969 271.675781 89.550781 276.027344 94.867188 C 276.121094 94.984375 276.320312 94.953125 276.46875 94.828125 C 276.613281 94.707031 276.671875 94.5 276.539062 94.394531 " fill-opacity="1" fill-rule="nonzero"/><path fill="#a3a3a3" d="M 288.203125 82.691406 C 283.265625 76.660156 276.394531 73.535156 269.765625 69.09375 C 263.199219 64.710938 257.433594 60.972656 250.503906 57.367188 C 236.320312 50.132812 222.84375 44.699219 206.523438 43.128906 C 204.90625 42.976562 196.28125 41.542969 184.070312 41.605469 C 171.882812 41.632812 156.121094 43.738281 141.339844 48.839844 C 126.527344 53.820312 112.945312 61.707031 103.980469 68.996094 C 94.925781 76.234375 90.160156 82.332031 90.898438 83.265625 C 91.394531 83.90625 105.5 71.929688 106.59375 71.8125 C 114.640625 67.386719 135.152344 56.339844 156.816406 52.269531 C 178.378906 47.601562 199.574219 49.738281 205.734375 50.195312 C 228.722656 51.519531 248.753906 58.03125 269.074219 70.277344 C 275.667969 74.40625 282.703125 77.214844 287.691406 83.15625 C 287.796875 83.292969 288.007812 83.273438 288.15625 83.152344 C 288.304688 83.027344 288.355469 82.8125 288.203125 82.691406 " fill-opacity="1" fill-rule="nonzero"/><path fill="#a3a3a3" d="M 299.871094 70.984375 C 294.296875 64.324219 286.78125 60.648438 279.363281 55.648438 C 272.035156 50.714844 265.554688 46.554688 257.78125 42.53125 C 241.871094 34.46875 226.757812 28.542969 208.527344 26.726562 C 206.722656 26.558594 197.078125 24.980469 183.4375 25.097656 C 169.828125 25.171875 152.230469 27.570312 135.722656 33.304688 C 119.179688 38.902344 104.015625 47.726562 93.980469 55.835938 C 83.855469 63.898438 78.488281 70.640625 79.210938 71.582031 C 79.660156 72.210938 95.417969 58.78125 96.632812 58.625 C 105.519531 53.523438 128.464844 40.933594 152.792969 36.246094 C 176.992188 30.882812 200.835938 33.226562 207.75 33.796875 C 233.554688 35.488281 256.023438 42.9375 278.6875 56.84375 C 286.054688 61.523438 293.730469 64.878906 299.359375 71.449219 C 299.476562 71.597656 299.699219 71.589844 299.847656 71.46875 C 300 71.34375 300.035156 71.121094 299.871094 70.984375 " fill-opacity="1" fill-rule="nonzero"/><path fill="#6d6d6d" d="M 94.207031 166.171875 C 92.136719 170.867188 93.332031 175.871094 93.078125 180.960938 C 92.828125 186.011719 92.503906 190.378906 92.660156 195.378906 C 93.058594 205.527344 93.894531 214.933594 98.46875 224.523438 C 99.117188 226.304688 106.628906 246.203125 122.34375 259.574219 C 137.425781 273.542969 157.632812 278.546875 158.261719 276.023438 C 158.539062 275.144531 147.355469 271.035156 146.992188 270.40625 C 142.152344 266.816406 129.988281 258.601562 121.222656 247.867188 C 112.167969 237.339844 106.84375 225.121094 105.003906 221.699219 C 97.925781 209.011719 94.761719 196.136719 94.449219 181.011719 C 94.445312 176.0625 92.902344 171.0625 94.871094 166.371094 C 94.914062 166.265625 94.785156 166.140625 94.601562 166.082031 C 94.417969 166.019531 94.21875 166.046875 94.207031 166.171875 " fill-opacity="1" fill-rule="nonzero"/><path fill="#6d6d6d" d="M 78.230469 161.929688 C 75.929688 167.492188 76.96875 173.328125 76.621094 179.375 C 76.28125 185.363281 75.945312 190.5625 76.164062 196.496094 C 76.707031 208.558594 77.941406 219.621094 83.257812 230.988281 C 84.011719 233.113281 93.070312 256.496094 111.6875 272.203125 C 129.582031 288.632812 153.363281 294.519531 153.984375 291.984375 C 154.269531 291.144531 141.003906 286.332031 140.542969 285.621094 C 134.695312 281.644531 119.976562 272.089844 109.347656 259.363281 C 98.375 246.902344 91.90625 232.285156 89.78125 228.152344 C 81.617188 212.84375 78.050781 197.394531 77.992188 179.410156 C 78.082031 173.519531 76.691406 167.691406 78.894531 162.128906 C 78.945312 162.011719 78.8125 161.867188 78.628906 161.804688 C 78.449219 161.742188 78.246094 161.78125 78.230469 161.929688 " fill-opacity="1" fill-rule="nonzero"/><path fill="#6d6d6d" d="M 62.25 157.683594 C 59.722656 164.113281 60.609375 170.785156 60.164062 177.789062 C 59.734375 184.71875 59.390625 190.746094 59.671875 197.613281 C 60.351562 211.589844 61.984375 224.308594 68.042969 237.449219 C 68.90625 239.917969 79.519531 266.792969 101.027344 284.832031 C 121.738281 303.722656 149.09375 310.492188 149.703125 307.941406 C 150 307.148438 134.652344 301.628906 134.097656 300.832031 C 127.242188 296.46875 109.96875 285.578125 97.476562 270.855469 C 84.574219 256.464844 76.964844 239.449219 74.566406 234.601562 C 65.308594 216.675781 61.339844 198.652344 61.535156 177.804688 C 61.722656 170.976562 60.484375 164.316406 62.917969 157.890625 C 62.972656 157.75 62.84375 157.59375 62.660156 157.527344 C 62.480469 157.464844 62.277344 157.515625 62.25 157.683594 " fill-opacity="1" fill-rule="nonzero"/><path fill="#6d6d6d" d="M 46.277344 153.441406 C 43.515625 160.734375 44.246094 168.238281 43.710938 176.199219 C 43.191406 184.070312 42.835938 190.925781 43.175781 198.730469 C 44 214.621094 46.027344 229 52.828125 243.910156 C 53.503906 245.386719 56.574219 253.5625 62.730469 264.101562 C 68.851562 274.628906 78.554688 287.21875 90.371094 297.460938 C 102.09375 307.789062 115.71875 315.601562 126.515625 319.71875 C 137.316406 323.929688 144.984375 325.007812 145.425781 323.898438 C 145.730469 323.148438 128.296875 316.929688 127.652344 316.042969 C 119.792969 311.292969 99.964844 299.066406 85.601562 282.351562 C 70.777344 266.027344 62.027344 246.617188 59.34375 241.058594 C 49 220.503906 44.625 199.914062 45.085938 176.203125 C 45.363281 168.433594 44.277344 160.941406 46.9375 153.652344 C 46.996094 153.492188 46.875 153.320312 46.695312 153.253906 C 46.515625 153.1875 46.300781 153.253906 46.277344 153.441406 " fill-opacity="1" fill-rule="nonzero"/><path fill="#6d6d6d" d="M 30.296875 149.199219 C 27.308594 157.355469 27.882812 165.695312 27.257812 174.613281 C 26.648438 183.425781 26.28125 191.113281 26.679688 199.847656 C 27.644531 217.652344 30.070312 233.691406 37.609375 250.371094 C 38.367188 252.019531 41.824219 261.15625 48.742188 272.90625 C 55.609375 284.644531 66.488281 298.671875 79.714844 310.089844 C 92.832031 321.609375 108.066406 330.316406 120.113281 334.945312 C 132.164062 339.679688 140.691406 340.949219 141.144531 339.855469 C 141.464844 339.152344 121.945312 332.230469 121.207031 331.257812 C 112.335938 326.117188 89.957031 312.554688 73.726562 293.847656 C 56.980469 275.589844 47.089844 253.78125 44.125 247.511719 C 32.6875 224.335938 27.914062 201.171875 28.632812 174.601562 C 29.003906 165.886719 28.074219 157.566406 30.957031 149.410156 C 31.023438 149.230469 30.90625 149.046875 30.726562 148.976562 C 30.546875 148.910156 30.328125 148.988281 30.296875 149.199219 " fill-opacity="1" fill-rule="nonzero"/><path fill="#444444" d="M 217.226562 276.414062 C 222.335938 275.859375 226.070312 272.320312 230.609375 269.996094 C 235.113281 267.691406 239.058594 265.785156 243.3125 263.152344 C 251.910156 257.730469 259.640625 252.304688 265.667969 243.546875 C 266.886719 242.097656 280.378906 225.648438 284.109375 205.363281 C 288.671875 185.328125 282.90625 165.335938 280.410156 166.054688 C 279.503906 166.253906 281.535156 177.992188 281.171875 178.617188 C 280.484375 184.601562 279.441406 199.238281 274.519531 212.1875 C 269.925781 225.285156 261.996094 236.003906 259.953125 239.308594 C 252.492188 251.773438 242.921875 260.949219 229.96875 268.785156 C 225.683594 271.261719 222.121094 275.097656 217.066406 275.738281 C 216.953125 275.753906 216.910156 275.929688 216.953125 276.117188 C 216.988281 276.304688 217.113281 276.464844 217.226562 276.414062 " fill-opacity="1" fill-rule="nonzero"/><path fill="#444444" d="M 221.539062 292.363281 C 227.507812 291.570312 232.046875 287.75 237.460938 285.03125 C 242.824219 282.332031 247.496094 280.019531 252.53125 276.863281 C 262.714844 270.363281 271.683594 263.765625 278.875 253.480469 C 280.339844 251.765625 296.078125 232.234375 300.382812 208.273438 C 305.675781 184.570312 298.886719 161.046875 296.375 161.78125 C 295.507812 161.949219 297.96875 175.835938 297.582031 176.589844 C 297.058594 183.636719 296.136719 201.152344 290.421875 216.714844 C 285.113281 232.445312 275.675781 245.347656 273.15625 249.25 C 263.96875 263.972656 252.367188 274.785156 236.808594 283.828125 C 231.65625 286.691406 227.296875 290.808594 221.382812 291.683594 C 221.253906 291.703125 221.195312 291.886719 221.230469 292.074219 C 221.265625 292.261719 221.402344 292.421875 221.539062 292.363281 " fill-opacity="1" fill-rule="nonzero"/><path fill="#444444" d="M 225.851562 308.3125 C 232.683594 307.285156 238.023438 303.183594 244.3125 300.066406 C 250.535156 296.96875 255.933594 294.257812 261.746094 290.578125 C 273.515625 283 283.726562 275.230469 292.082031 263.417969 C 293.792969 261.433594 311.78125 238.8125 316.65625 211.179688 C 322.671875 183.808594 314.863281 156.757812 312.347656 157.503906 C 311.511719 157.640625 314.402344 173.683594 313.992188 174.5625 C 313.632812 182.675781 312.832031 203.070312 306.320312 221.242188 C 300.296875 239.601562 289.355469 254.695312 286.355469 259.195312 C 275.445312 276.171875 261.8125 288.617188 243.644531 298.867188 C 237.632812 302.121094 232.480469 306.523438 225.695312 307.632812 C 225.546875 307.65625 225.472656 307.84375 225.507812 308.035156 C 225.542969 308.222656 225.691406 308.375 225.851562 308.3125 " fill-opacity="1" fill-rule="nonzero"/><path fill="#444444" d="M 230.160156 324.257812 C 237.859375 323 244 318.613281 251.164062 315.097656 C 258.246094 311.609375 264.367188 308.492188 270.960938 304.292969 C 284.320312 295.636719 295.769531 286.691406 305.292969 273.351562 C 306.230469 272.03125 311.78125 265.285156 317.835938 254.6875 C 323.90625 244.125 329.960938 229.433594 332.929688 214.089844 C 336.019531 198.777344 335.980469 183.082031 334.148438 171.679688 C 332.394531 160.226562 329.496094 153.054688 328.316406 153.230469 C 327.515625 153.335938 330.839844 171.53125 330.394531 172.535156 C 330.207031 181.710938 329.523438 204.984375 322.21875 225.769531 C 315.480469 246.761719 303.039062 264.039062 299.558594 269.140625 C 286.921875 288.367188 271.257812 302.449219 250.484375 313.90625 C 243.609375 317.554688 237.65625 322.234375 230.011719 323.582031 C 229.84375 323.605469 229.753906 323.796875 229.785156 323.984375 C 229.820312 324.175781 229.984375 324.328125 230.160156 324.257812 " fill-opacity="1" fill-rule="nonzero"/><path fill="#444444" d="M 234.472656 340.207031 C 243.035156 338.710938 249.976562 334.046875 258.015625 330.128906 C 265.957031 326.25 272.804688 322.722656 280.175781 318.011719 C 295.121094 308.273438 307.8125 298.15625 318.5 283.289062 C 319.550781 281.8125 325.738281 274.253906 332.464844 262.390625 C 339.203125 250.574219 345.921875 234.148438 349.203125 216.996094 C 352.625 199.882812 352.558594 182.34375 350.546875 169.609375 C 348.625 156.816406 345.464844 148.796875 344.285156 148.953125 C 343.515625 149.03125 347.277344 169.378906 346.804688 170.507812 C 346.785156 180.75 346.21875 206.902344 338.121094 230.296875 C 330.667969 253.917969 316.714844 273.382812 312.761719 279.082031 C 298.394531 300.566406 280.707031 316.28125 257.320312 328.945312 C 249.585938 332.980469 242.835938 337.949219 234.328125 339.53125 C 234.140625 339.5625 234.035156 339.753906 234.066406 339.945312 C 234.097656 340.136719 234.273438 340.28125 234.472656 340.207031 " fill-opacity="1" fill-rule="nonzero"/></svg>